<?xml version="1.0" standalone="no"?>
<!DOCTYPE svg PUBLIC "-//W3C//DTD SVG 20010904//EN"
 "http://www.w3.org/TR/2001/REC-SVG-20010904/DTD/svg10.dtd">
<svg version="1.0" xmlns="http://www.w3.org/2000/svg"
 width="370.000000pt" height="370.000000pt" viewBox="0 0 370.000000 370.000000"
 preserveAspectRatio="xMidYMid meet">
<metadata>
Created by potrace 1.14, written by Peter Selinger 2001-2017
</metadata>
<g transform="translate(0.000000,370.000000) scale(0.100000,-0.100000)"
fill="#000000" stroke="none">
<path d="M1798 3139 c-14 -8 -18 -23 -18 -65 0 -30 -5 -64 -11 -76 -6 -11 -8
-22 -5 -26 8 -7 224 -7 232 1 4 3 -1 22 -10 41 -9 19 -16 54 -16 79 0 32 -5
47 -16 51 -25 10 -137 6 -156 -5z"/>
<path d="M1753 2668 c-8 -13 -7 -204 2 -248 3 -14 8 -73 11 -131 6 -110 -6
-186 -30 -195 -7 -3 -38 6 -69 20 -31 15 -61 26 -67 26 -13 0 3 -33 37 -74 28
-33 25 -40 -9 -27 -46 17 -210 32 -388 36 -136 2 -195 -6 -295 -41 -35 -12
-84 -18 -165 -18 -140 -1 -183 -19 -270 -108 -105 -107 -143 -200 -245 -607
-88 -350 -133 -471 -221 -594 -19 -26 -34 -50 -34 -53 0 -11 66 40 102 79 78
85 137 231 222 554 87 330 139 465 217 564 87 109 216 143 549 144 204 0 272
-6 575 -49 157 -23 354 -27 445 -10 36 7 100 27 144 44 77 31 78 31 100 12 11
-10 70 -52 131 -93 201 -135 293 -239 400 -449 35 -70 84 -153 109 -186 45
-61 212 -226 396 -394 58 -52 114 -104 125 -115 22 -21 128 -111 158 -134 9
-8 17 -9 17 -3 0 26 -114 155 -321 367 -246 250 -302 311 -358 395 -44 65 -87
160 -97 214 l-7 39 49 -6 c94 -11 287 -85 330 -125 42 -40 145 -49 187 -17 20
15 32 57 42 145 3 30 8 71 10 90 2 19 6 67 10 105 22 281 35 393 46 425 9 22
5 20 -27 -13 l-36 -38 -28 18 c-16 10 -47 36 -71 58 -256 237 -549 222 -909
-44 -41 -31 -102 -73 -135 -93 -52 -33 -62 -36 -80 -24 -38 25 -185 200 -250
298 -63 94 -94 124 -79 76 19 -64 122 -211 240 -343 49 -55 71 -87 62 -90
-111 -38 -324 -55 -406 -33 -69 19 -80 44 -54 126 10 31 9 148 -3 217 -9 58
-14 101 -20 185 -3 47 -8 95 -11 108 -5 24 -19 29 -31 10z m1475 -373 c151
-44 259 -123 280 -206 11 -40 9 -262 -2 -344 -2 -16 -7 -52 -10 -80 -16 -121
-32 -161 -71 -171 -13 -3 -44 0 -67 7 -42 14 -43 15 -44 59 -1 66 -11 113 -50
226 -55 161 -50 224 22 299 25 25 44 49 41 51 -12 12 -62 -12 -96 -47 -35 -35
-47 -62 -65 -150 -5 -23 -12 -27 -52 -33 -65 -9 -105 -40 -206 -160 -24 -29
-26 -29 -59 -16 -36 15 -367 231 -432 283 -52 40 -46 61 33 121 127 95 318
169 475 183 39 3 71 6 72 7 8 6 186 -16 231 -29z m-20 -504 c63 -95 101 -184
82 -196 -10 -6 -144 20 -272 53 l-67 17 25 50 c14 28 40 65 58 83 34 34 100
64 124 55 7 -3 30 -31 50 -62z"/>
<path d="M2300 1603 c0 -3 7 -14 16 -24 44 -49 26 -134 -71 -329 -54 -107 -61
-124 -69 -172 -6 -35 19 -67 64 -82 18 -6 38 -18 43 -27 14 -22 -23 -70 -165
-215 -121 -124 -146 -154 -126 -154 20 1 85 53 177 143 83 81 201 220 201 237
0 16 -31 40 -51 40 -11 0 -31 11 -45 25 -40 40 -29 89 59 275 51 108 61 147
52 191 -10 43 -85 125 -85 92z"/>
<path d="M1375 1563 c37 -89 45 -189 21 -247 -18 -43 -78 -92 -144 -116 -55
-21 -205 -57 -277 -67 -113 -15 -217 -88 -231 -161 -9 -48 -9 -114 0 -231 11
-155 26 -143 23 19 -2 160 2 175 63 237 31 32 66 46 140 58 191 31 198 31 253
26 8 0 24 -21 36 -46 52 -103 182 -239 356 -369 61 -46 124 -91 140 -102 l30
-18 -20 23 c-11 13 -45 47 -75 75 -115 108 -229 223 -273 279 -48 59 -97 145
-97 170 0 8 23 29 50 48 57 38 106 105 116 156 14 73 -6 140 -69 235 -31 47
-56 65 -42 31z"/>
</g>
</svg>
